<svg width="50" height="50" viewBox="0 0 50 50" fill="none" xmlns="http://www.w3.org/2000/svg">
<g filter="url(#filter0_d_43_136)">
<path d="M4 0H46V42H4V0Z" fill="#09090B"/>
</g>
<path d="M31.4205 8H39V19.6238H37.1051C35.8645 19.6238 34.9509 19.4661 34.3643 19.1506C33.7778 18.8215 33.3154 18.458 32.977 18.0602C32.65 17.6488 32.368 17.1139 32.1311 16.4555C31.6574 15.1114 31.4205 13.2461 31.4205 10.8597V8ZM20.4743 8H25.0254V8C27.3269 8 29.2018 9.84823 29.2347 12.1495L29.5764 36V36C24.5495 36 20.4743 31.9248 20.4743 26.8979V8ZM11 8H18.5795V10.8597C18.5795 14.3845 18.055 16.7847 17.006 18.0602C16.1488 19.1026 14.7784 19.6238 12.8949 19.6238H11V8Z" fill="white"/>
<defs>
<filter id="filter0_d_43_136" x="0" y="0" width="50" height="50" filterUnits="userSpaceOnUse" color-interpolation-filters="sRGB">
<feFlood flood-opacity="0" result="BackgroundImageFix"/>
<feColorMatrix in="SourceAlpha" type="matrix" values="0 0 0 0 0 0 0 0 0 0 0 0 0 0 0 0 0 0 127 0" result="hardAlpha"/>
<feOffset dy="4"/>
<feGaussianBlur stdDeviation="2"/>
<feComposite in2="hardAlpha" operator="out"/>
<feColorMatrix type="matrix" values="0 0 0 0 0 0 0 0 0 0 0 0 0 0 0 0 0 0 0.25 0"/>
<feBlend mode="normal" in2="BackgroundImageFix" result="effect1_dropShadow_43_136"/>
<feBlend mode="normal" in="SourceGraphic" in2="effect1_dropShadow_43_136" result="shape"/>
</filter>
</defs>
</svg>
